<svg xmlns="http://www.w3.org/2000/svg" width="122" height="43.138" viewBox="0 0 122 43.138">
  <g id="Groupe_1" data-name="Groupe 1" transform="translate(-131.836 -253.599)">
    <path id="Tracé_1" data-name="Tracé 1" d="M223.395,354.768a2.322,2.322,0,0,1-.837,1.935,4,4,0,0,1-2.517.666h-1.2V352.26h1.66a3.282,3.282,0,0,1,2.194.612A2.385,2.385,0,0,1,223.395,354.768Z" transform="translate(-71.476 -81.051)" fill="#fff"/>
    <path id="Tracé_2" data-name="Tracé 2" d="M184.833,272.893c-1.84-4.287-4.633-10.963-7.693-10.963-3.463,0-4.044,5.847-5.847,11.145-1.082,3.179-3.693,7.295-3.693,11.418,0,3.919,3.323,6.6,4.309,9.683,1.778,5.565,1.665,7.582,5.231,7.582,3.352,0,3.409-1.471,5.23-6.486,1.189-3.272,4.555-5.156,4.555-9.5C186.925,280.848,186.323,276.368,184.833,272.893Zm-1.585,11.785a7.432,7.432,0,0,1-4.937,1.471h-1.565v6.118H173.1v-17.2h5.5a7.3,7.3,0,0,1,4.76,1.348,4.908,4.908,0,0,1,1.63,4.018A5.259,5.259,0,0,1,183.248,284.678Z" transform="translate(-29.381 -6.844)" fill="#fff"/>
    <path id="Tracé_3" data-name="Tracé 3" d="M166.268,253.6a3.38,3.38,0,0,1,1.553.423,6.357,6.357,0,0,1,1.3.941,16.031,16.031,0,0,1,2.094,2.426,49.666,49.666,0,0,1,3.318,5.475l.738,1.415c.246.472.482.94.714,1.441s.436,1,.625,1.511.352,1.03.5,1.554a30.072,30.072,0,0,1,1,6.387c.059,1.073.071,2.145.054,3.215l-.021.8-.071.839c-.039.278-.1.553-.154.827-.068.271-.16.537-.24.8a10.566,10.566,0,0,1-1.625,2.846c-.649.86-1.36,1.65-2,2.48-.163.207-.309.422-.465.632s-.287.434-.427.653c-.122.228-.263.447-.37.681s-.216.464-.307.716c-.382.987-.749,1.979-1.125,2.977-.092.25-.2.5-.3.746s-.214.495-.332.739a5.513,5.513,0,0,1-.917,1.4,4.063,4.063,0,0,1-.319.3c-.119.085-.238.173-.36.255l-.391.2c-.132.062-.271.1-.407.15a6.706,6.706,0,0,1-1.653.275,8.87,8.87,0,0,1-1.663-.022,4.243,4.243,0,0,1-1.69-.524,3.859,3.859,0,0,1-1.283-1.276,9.259,9.259,0,0,1-.753-1.513c-.413-1.015-.726-2.027-1.073-3.026l-.518-1.493-.133-.371c-.044-.123-.093-.226-.139-.34s-.087-.224-.144-.334l-.169-.329a22.354,22.354,0,0,0-1.687-2.578,28.51,28.51,0,0,1-1.794-2.724,9.453,9.453,0,0,1-1.154-3.226,6.481,6.481,0,0,1-.079-.878l-.012-.221c0-.072,0-.143.007-.214l.017-.427c0-.286.049-.565.079-.846a7.674,7.674,0,0,1,.14-.832,18.82,18.82,0,0,1,.978-3.16c.4-1.013.861-1.99,1.345-2.941l.721-1.419c.244-.468.483-.934.712-1.4s.435-.933.636-1.415.389-.973.575-1.466c.748-1.969,1.39-4,2.228-5.975a10.961,10.961,0,0,1,1.612-2.78,4.083,4.083,0,0,1,1.258-1.013A3.408,3.408,0,0,1,166.268,253.6Zm0,.143a3.22,3.22,0,0,0-1.494.366,3.712,3.712,0,0,0-1.17,1,7.491,7.491,0,0,0-.815,1.332,12.092,12.092,0,0,0-.6,1.455c-.172.5-.329,1-.476,1.506s-.277,1.019-.41,1.532c-.265,1.025-.517,2.058-.8,3.089-.145.515-.293,1.03-.457,1.542s-.356,1.033-.557,1.533-.416.992-.631,1.481l-.66,1.446c-.43.962-.857,1.913-1.222,2.877a17.358,17.358,0,0,0-.848,2.923,8.973,8.973,0,0,0-.14,2.9,8.593,8.593,0,0,0,.959,2.735,27.193,27.193,0,0,0,1.653,2.616,23.2,23.2,0,0,1,1.72,2.786l.183.383c.062.127.107.267.161.4s.108.273.15.4l.125.381c.166.508.328,1.017.482,1.526.311,1.016.606,2.037.941,3.007a4.574,4.574,0,0,0,1.481,2.37,3.326,3.326,0,0,0,1.3.482,8.04,8.04,0,0,0,1.51.11,6,6,0,0,0,1.488-.154c.114-.036.236-.059.346-.1l.326-.144.3-.191a3.474,3.474,0,0,0,.273-.231,4.907,4.907,0,0,0,.871-1.213c.119-.229.231-.464.34-.7s.214-.478.312-.723c.409-.972.772-1.97,1.17-2.956.09-.247.218-.495.324-.744s.253-.48.379-.72c.142-.23.285-.459.434-.684s.306-.443.468-.655c.635-.862,1.308-1.682,1.9-2.543a9.441,9.441,0,0,0,1.35-2.745c.053-.246.119-.488.163-.734.027-.249.067-.5.085-.744l.011-.749-.034-.788q-.074-1.575-.228-3.138c-.094-1.042-.242-2.076-.407-3.1s-.376-2.045-.635-3.046c-.129-.5-.269-1-.428-1.489s-.323-.979-.513-1.458-.407-.962-.609-1.451l-.622-1.46c-.416-.971-.841-1.937-1.3-2.887-.231-.474-.465-.946-.714-1.411s-.51-.922-.789-1.368a12.953,12.953,0,0,0-1.921-2.489,5.846,5.846,0,0,0-1.243-.947A3.193,3.193,0,0,0,166.268,253.742Z" transform="translate(-18.53)" fill="#fff"/>
    <path id="Tracé_4" data-name="Tracé 4" d="M140.912,284.744a7.763,7.763,0,0,1-.2,1.7,13.11,13.11,0,0,1-.461,1.646c-.094.269-.2.533-.3.8s-.232.52-.348.78-.25.512-.385.762-.28.5-.436.733-.314.474-.478.706l-.517.677c-.17.227-.346.448-.526.666s-.348.444-.517.668c-.359.434-.685.893-1.031,1.336q-.262.331-.515.67c-.173.225-.335.455-.493.678-.078.113-.162.222-.235.338l-.215.35c-.149.229-.266.475-.4.71s-.239.484-.348.728-.21.493-.284.75a8.754,8.754,0,0,0-.425,3.131,10.827,10.827,0,0,0,.6,3.149,14.96,14.96,0,0,0,1.408,2.989l-.067.059a9.392,9.392,0,0,1-1.992-2.781,9.035,9.035,0,0,1-.9-3.37,7.34,7.34,0,0,1,.1-1.768,8.084,8.084,0,0,1,.485-1.7,8.707,8.707,0,0,1,.363-.8c.064-.131.144-.254.215-.381a4.152,4.152,0,0,1,.23-.371,7.943,7.943,0,0,1,.519-.7l.276-.332c.094-.109.2-.21.294-.315l.583-.613q.289-.3.567-.616c.194-.2.355-.43.531-.647s.34-.442.5-.668a24.491,24.491,0,0,0,1.625-2.915c.134-.242.249-.493.375-.739s.261-.486.38-.734c.25-.491.485-.99.718-1.49a28.021,28.021,0,0,0,1.21-3.1Z" transform="translate(0 -25.578)" fill="#fff"/>
    <path id="Tracé_5" data-name="Tracé 5" d="M261.947,436.819c-.286.768-.631,1.483-.964,2.2s-.684,1.423-1.038,2.126-.7,1.408-1.068,2.11-.736,1.4-1.146,2.109a10.131,10.131,0,0,1,.5-2.378,16.1,16.1,0,0,1,.917-2.238,16.453,16.453,0,0,1,1.232-2.08A11.861,11.861,0,0,1,261.947,436.819Z" transform="translate(-103.425 -150.518)" fill="#fff"/>
    <path id="Tracé_6" data-name="Tracé 6" d="M305.282,342.849q0,4.272-2.118,6.566a9.18,9.18,0,0,1-12.144,0q-2.118-2.294-2.118-6.59t2.124-6.56a7.943,7.943,0,0,1,6.09-2.265,7.833,7.833,0,0,1,6.066,2.283Q305.282,338.566,305.282,342.849Zm-12.556,0a7.187,7.187,0,0,0,1.094,4.342,3.829,3.829,0,0,0,3.271,1.459q4.366,0,4.366-5.8t-4.342-5.813a3.855,3.855,0,0,0-3.283,1.465A7.155,7.155,0,0,0,292.726,342.849Z" transform="translate(-129.033 -66.05)" fill="#fff"/>
    <path id="Tracé_7" data-name="Tracé 7" d="M414.3,346.118v6.6h-3.648v-17.2h5.013a8.579,8.579,0,0,1,5.189,1.277,5.09,5.09,0,0,1,.847,6.578,5.528,5.528,0,0,1-2.365,1.853q3.883,5.8,5.06,7.5h-4.048l-4.107-6.6Zm0-2.965h1.177a4.5,4.5,0,0,0,2.553-.577,2.058,2.058,0,0,0,.824-1.812,1.883,1.883,0,0,0-.841-1.742,5.106,5.106,0,0,0-2.607-.518H414.3Z" transform="translate(-229.051 -67.296)" fill="#fff"/>
    <path id="Tracé_8" data-name="Tracé 8" d="M508.678,352.72h-3.648V338.552h-4.672v-3.036H513.35v3.036h-4.672Z" transform="translate(-302.748 -67.296)" fill="#fff"/>
    <path id="Tracé_9" data-name="Tracé 9" d="M598.544,352.4,597.3,348.3h-6.272l-1.247,4.095h-3.93l6.072-17.274h4.46l6.1,17.274Zm-2.118-7.155q-1.73-5.566-1.947-6.3t-.312-1.153q-.388,1.506-2.224,7.449Z" transform="translate(-372.977 -66.971)" fill="#fff"/>
    <path id="Tracé_10" data-name="Tracé 10" d="M701.135,352.72v-17.2h3.648v17.2Z" transform="translate(-467.688 -67.296)" fill="#fff"/>
    <path id="Tracé_11" data-name="Tracé 11" d="M755.835,352.72v-17.2h3.648v14.191h6.978v3.012Z" transform="translate(-512.625 -67.296)" fill="#fff"/>
  </g>
</svg>
