<svg xmlns="http://www.w3.org/2000/svg" width="260" height="91.933" viewBox="0 0 260 91.933">
  <g id="Groupe_10" data-name="Groupe 10" transform="translate(-131.836 -253.599)">
    <path id="Tracé_1" data-name="Tracé 1" d="M228.547,357.6a4.949,4.949,0,0,1-1.784,4.123,8.519,8.519,0,0,1-5.363,1.419h-2.56V352.26h3.538a6.994,6.994,0,0,1,4.675,1.3A5.082,5.082,0,0,1,228.547,357.6Z" transform="translate(-53.91 -61.132)"/>
    <path id="Tracé_2" data-name="Tracé 2" d="M204.325,285.293c-3.922-9.137-9.875-23.363-16.394-23.363-7.379,0-8.619,12.461-12.461,23.751-2.305,6.775-7.87,15.546-7.87,24.333,0,8.353,7.083,14.07,9.182,20.635,3.789,11.86,3.549,16.158,11.149,16.158,7.144,0,7.265-3.134,11.145-13.823,2.533-6.972,9.707-10.989,9.707-20.244C208.783,302.246,207.5,292.7,204.325,285.293Zm-3.378,25.116q-3.7,3.132-10.521,3.134H187.09v13.039h-7.775V289.922h11.712q6.67,0,10.145,2.872t3.473,8.562Q204.645,307.273,200.948,310.409Z" transform="translate(-22.16 -5.162)"/>
    <path id="Tracé_3" data-name="Tracé 3" d="M179.7,253.6a7.2,7.2,0,0,1,3.31.9,13.547,13.547,0,0,1,2.778,2.005,34.165,34.165,0,0,1,4.462,5.171,105.847,105.847,0,0,1,7.07,11.669l1.573,3.016c.525,1,1.027,2,1.522,3.072s.93,2.132,1.333,3.22.749,2.2,1.058,3.311a64.086,64.086,0,0,1,2.141,13.612c.125,2.286.151,4.572.115,6.852l-.045,1.709-.151,1.787c-.084.592-.219,1.178-.329,1.763-.145.579-.341,1.144-.51,1.713a22.519,22.519,0,0,1-3.463,6.065c-1.383,1.834-2.9,3.517-4.269,5.286-.347.441-.66.9-.992,1.348-.312.459-.612.925-.909,1.392-.26.485-.56.953-.789,1.452s-.461.988-.654,1.525c-.815,2.1-1.6,4.217-2.4,6.344-.2.532-.421,1.059-.631,1.59s-.456,1.054-.708,1.576a11.749,11.749,0,0,1-1.955,2.983,8.655,8.655,0,0,1-.681.634c-.254.182-.507.369-.767.544l-.834.427c-.282.133-.577.212-.867.32a14.291,14.291,0,0,1-3.523.585,18.906,18.906,0,0,1-3.544-.047,9.043,9.043,0,0,1-3.6-1.117,8.225,8.225,0,0,1-2.735-2.719,19.729,19.729,0,0,1-1.606-3.224c-.88-2.163-1.548-4.32-2.287-6.449l-1.1-3.181-.283-.791c-.095-.262-.2-.482-.3-.725s-.185-.477-.307-.711l-.359-.7a47.639,47.639,0,0,0-3.6-5.495,60.763,60.763,0,0,1-3.823-5.806,20.146,20.146,0,0,1-2.46-6.874,13.807,13.807,0,0,1-.169-1.871l-.026-.47c0-.154.01-.3.015-.456l.037-.91c.005-.61.105-1.2.169-1.8a16.358,16.358,0,0,1,.3-1.773,40.111,40.111,0,0,1,2.084-6.735c.859-2.159,1.835-4.24,2.867-6.267l1.537-3.025c.519-1,1.03-1.991,1.517-2.988s.927-1.988,1.355-3.015.83-2.073,1.225-3.124c1.594-4.2,2.963-8.533,4.747-12.733a23.361,23.361,0,0,1,3.434-5.924,8.7,8.7,0,0,1,2.682-2.16A7.262,7.262,0,0,1,179.7,253.6Zm0,.3a6.862,6.862,0,0,0-3.184.78,7.911,7.911,0,0,0-2.494,2.141,15.967,15.967,0,0,0-1.738,2.838,25.776,25.776,0,0,0-1.27,3.1c-.367,1.058-.7,2.129-1.014,3.209s-.591,2.172-.874,3.264c-.565,2.185-1.1,4.386-1.71,6.582-.308,1.1-.625,2.194-.973,3.287s-.758,2.2-1.187,3.266-.887,2.115-1.346,3.155l-1.407,3.081c-.916,2.049-1.827,4.077-2.6,6.132a36.993,36.993,0,0,0-1.807,6.229,19.122,19.122,0,0,0-.3,6.188,18.313,18.313,0,0,0,2.044,5.829,57.958,57.958,0,0,0,3.523,5.576,49.445,49.445,0,0,1,3.665,5.938l.391.817c.131.272.229.569.343.852s.231.581.321.853l.267.812c.353,1.083.7,2.168,1.026,3.253.664,2.166,1.292,4.341,2,6.408.732,2.049,1.593,4.01,3.156,5.05a7.088,7.088,0,0,0,2.773,1.028,17.143,17.143,0,0,0,3.218.234,12.791,12.791,0,0,0,3.17-.329c.243-.076.5-.126.737-.221l.694-.306.635-.408a7.4,7.4,0,0,0,.581-.493,10.458,10.458,0,0,0,1.857-2.585c.254-.488.492-.989.725-1.494s.456-1.018.666-1.541c.873-2.071,1.646-4.2,2.494-6.3.191-.526.464-1.054.69-1.585s.54-1.022.808-1.535c.3-.49.607-.978.924-1.457.333-.464.652-.944,1-1.4,1.352-1.837,2.788-3.584,4.044-5.42a20.118,20.118,0,0,0,2.878-5.851c.113-.525.254-1.04.348-1.564.057-.531.143-1.056.181-1.586l.023-1.6-.073-1.68q-.159-3.357-.485-6.687c-.2-2.221-.515-4.425-.867-6.614s-.8-4.357-1.353-6.491c-.274-1.068-.573-2.127-.912-3.173s-.689-2.087-1.094-3.106-.867-2.049-1.3-3.091l-1.325-3.111c-.887-2.069-1.792-4.129-2.769-6.152-.491-1.009-.99-2.017-1.521-3.006s-1.088-1.964-1.681-2.915a27.605,27.605,0,0,0-4.095-5.305,12.459,12.459,0,0,0-2.65-2.018A6.806,6.806,0,0,0,179.7,253.9Z" transform="translate(-13.976 0)"/>
    <path id="Tracé_4" data-name="Tracé 4" d="M151.178,284.755a16.545,16.545,0,0,1-.417,3.62,27.937,27.937,0,0,1-.982,3.508c-.2.573-.425,1.137-.644,1.7s-.495,1.107-.741,1.662-.532,1.09-.82,1.624-.6,1.055-.928,1.562-.669,1.01-1.018,1.5l-1.1,1.443c-.362.483-.738.954-1.122,1.418s-.741.946-1.1,1.424c-.764.925-1.46,1.9-2.2,2.848q-.558.7-1.1,1.428c-.368.48-.714.971-1.051,1.444-.167.241-.345.473-.5.72l-.458.745c-.318.487-.567,1.013-.852,1.513-.259.514-.509,1.031-.742,1.552-.205.534-.448,1.051-.606,1.6a18.657,18.657,0,0,0-.906,6.673,23.073,23.073,0,0,0,1.272,6.711,31.883,31.883,0,0,0,3,6.37l-.143.125a20.018,20.018,0,0,1-4.245-5.927,19.255,19.255,0,0,1-1.915-7.182,15.644,15.644,0,0,1,.215-3.768,17.228,17.228,0,0,1,1.033-3.62,18.561,18.561,0,0,1,.774-1.705c.137-.28.307-.542.459-.813a8.863,8.863,0,0,1,.489-.79,16.925,16.925,0,0,1,1.105-1.485l.589-.707c.2-.232.419-.447.626-.671l1.242-1.307q.616-.645,1.209-1.312c.413-.429.756-.917,1.131-1.378s.725-.943,1.073-1.424a52.2,52.2,0,0,0,3.463-6.212c.286-.515.53-1.052.8-1.574s.555-1.036.811-1.564c.533-1.047,1.033-2.109,1.529-3.175a59.713,59.713,0,0,0,2.579-6.6Z" transform="translate(0 -19.292)"/>
    <path id="Tracé_5" data-name="Tracé 5" d="M266.716,436.819c-.609,1.636-1.344,3.161-2.055,4.694-.735,1.518-1.458,3.033-2.212,4.53s-1.5,3-2.275,4.5-1.568,2.99-2.442,4.494a21.589,21.589,0,0,1,1.061-5.068,34.307,34.307,0,0,1,1.954-4.77,35.063,35.063,0,0,1,2.626-4.433A25.28,25.28,0,0,1,266.716,436.819Z" transform="translate(-78.008 -113.527)"/>
    <path id="Tracé_6" data-name="Tracé 6" d="M323.81,352.858q0,9.1-4.514,13.993t-12.94,4.891q-8.426,0-12.94-4.891T288.9,352.808q0-9.153,4.526-13.981T306.406,334q8.451,0,12.928,4.865T323.81,352.858Zm-26.758,0q0,6.145,2.332,9.254t6.972,3.11q9.3,0,9.3-12.363,0-12.388-9.254-12.388a8.216,8.216,0,0,0-7,3.122Q297.052,346.714,297.052,352.858Z" transform="translate(-97.322 -49.818)"/>
    <path id="Tracé_7" data-name="Tracé 7" d="M418.425,358.111V372.18h-7.774V335.516h10.683q7.473,0,11.059,2.721t3.586,8.263a9.73,9.73,0,0,1-1.781,5.755,11.781,11.781,0,0,1-5.04,3.949q8.276,12.364,10.783,15.975h-8.627l-8.752-14.069Zm0-6.32h2.508a9.6,9.6,0,0,0,5.442-1.229,4.387,4.387,0,0,0,1.755-3.862,4.013,4.013,0,0,0-1.793-3.712,10.882,10.882,0,0,0-5.555-1.1h-2.357Z" transform="translate(-172.76 -50.757)"/>
    <path id="Tracé_8" data-name="Tracé 8" d="M518.089,372.18h-7.774V341.986h-9.956v-6.47h27.686v6.47h-9.956Z" transform="translate(-228.345 -50.757)"/>
    <path id="Tracé_9" data-name="Tracé 9" d="M612.906,371.935l-2.658-8.727H596.881l-2.658,8.727h-8.376l12.94-36.814h9.5l12.99,36.814Zm-4.514-15.247q-3.686-11.861-4.15-13.416t-.664-2.458q-.828,3.21-4.74,15.874Z" transform="translate(-281.316 -50.513)"/>
    <path id="Tracé_10" data-name="Tracé 10" d="M701.135,372.18V335.516h7.774V372.18Z" transform="translate(-352.751 -50.757)"/>
    <path id="Tracé_11" data-name="Tracé 11" d="M755.835,372.18V335.516h7.774V365.76H778.48v6.42Z" transform="translate(-386.644 -50.757)"/>
  </g>
</svg>
